<?xml version="1.0" encoding="UTF-8"?>
<svg version="1.1" xmlns="http://www.w3.org/2000/svg" width="512" height="512">
<path d="M0 0 C4.11001108 3.44229499 7.84767833 7.21290974 11.60009766 11.0324707 C12.72363571 12.15742171 13.84828103 13.28126774 14.97393799 14.40409851 C18.00520479 17.43393945 21.02088021 20.47887007 24.03385592 23.52688622 C27.19318075 26.71761338 30.36681202 29.89404748 33.53890991 33.07206726 C39.53397276 39.08262788 45.51618304 45.10581153 51.49380624 51.13371104 C58.30379227 57.99971731 65.12809831 64.85141493 71.95360494 71.70198691 C85.98498717 85.78553515 99.99841787 99.8868288 114 114 C117.62141126 112.47095623 119.91302449 110.3221994 122.66567993 107.54118347 C123.11939984 107.08564459 123.57311974 106.6301057 124.04058874 106.16076261 C125.55741032 104.6355382 127.0669438 103.10330017 128.57666016 101.57104492 C129.66399051 100.47496309 130.7518018 99.37935817 131.84005737 98.28419495 C134.18248902 95.92527626 136.52192129 93.56343629 138.85921097 91.19942284 C142.56044656 87.45678802 146.27093753 83.72342344 149.98324585 79.99177551 C160.53842843 69.37904832 171.08366217 58.75650585 181.61376953 48.11889648 C187.42989207 42.24355739 193.25504368 36.37732441 199.09010541 30.52079278 C202.77724828 26.81906399 206.45306802 23.10656467 210.12078404 19.38559186 C212.41418813 17.06429658 214.71815062 14.75370499 217.02513504 12.44591331 C218.08644283 11.38006603 219.1434977 10.30996275 220.19573212 9.23515701 C227.32425801 1.96007691 234.4251665 -4.8705622 245.0625 -5.5625 C251.52754644 -5.18638881 257.47871586 -3.08246711 261.875 1.8125 C266.33015364 8.49523046 268.09000452 14.0605417 267 22 C264.03353131 30.98635957 257.54317273 37.14004328 250.9675293 43.60009766 C249.84257829 44.72363571 248.71873226 45.84828103 247.59590149 46.97393799 C244.56606055 50.00520479 241.52112993 53.02088021 238.47311378 56.03385592 C235.28238662 59.19318075 232.10595252 62.36681202 228.92793274 65.53890991 C222.91737212 71.53397276 216.89418847 77.51618304 210.86628896 83.49380624 C204.00028269 90.30379227 197.14858507 97.12809831 190.29801309 103.95360494 C176.21446485 117.98498717 162.1131712 131.99841787 148 146 C149.52904377 149.62141126 151.6778006 151.91302449 154.45881653 154.66567993 C154.91435541 155.11939984 155.3698943 155.57311974 155.83923739 156.04058874 C157.3644618 157.55741032 158.89669983 159.0669438 160.42895508 160.57666016 C161.52503691 161.66399051 162.62064183 162.7518018 163.71580505 163.84005737 C166.07472374 166.18248902 168.43656371 168.52192129 170.80057716 170.85921097 C174.54321198 174.56044656 178.27657656 178.27093753 182.00822449 181.98324585 C192.62095168 192.53842843 203.24349415 203.08366217 213.88110352 213.61376953 C219.75644261 219.42989207 225.62267559 225.25504368 231.47920722 231.09010541 C235.18093601 234.77724828 238.89343533 238.45306802 242.61440814 242.12078404 C244.93570342 244.41418813 247.24629501 246.71815062 249.55408669 249.02513504 C250.61993397 250.08644283 251.69003725 251.1434977 252.76484299 252.19573212 C260.03318993 259.3176605 266.78569239 266.40514954 267.625 277 C267.25102333 283.77432018 264.32247777 289.61640439 259.625 294.4375 C252.93768544 298.41804438 247.79955138 300.07000217 240 299 C231.01364043 296.03353131 224.85995672 289.54317273 218.39990234 282.9675293 C217.27636429 281.84257829 216.15171897 280.71873226 215.02606201 279.59590149 C211.99479521 276.56606055 208.97911979 273.52112993 205.96614408 270.47311378 C202.80681925 267.28238662 199.63318798 264.10595252 196.46109009 260.92793274 C190.46602724 254.91737212 184.48381696 248.89418847 178.50619376 242.86628896 C171.69620773 236.00028269 164.87190169 229.14858507 158.04639506 222.29801309 C144.01501283 208.21446485 130.00158213 194.1131712 116 180 C112.37858874 181.52904377 110.08697551 183.6778006 107.33432007 186.45881653 C106.88060016 186.91435541 106.42688026 187.3698943 105.95941126 187.83923739 C104.44258968 189.3644618 102.9330562 190.89669983 101.42333984 192.42895508 C100.33600949 193.52503691 99.2481982 194.62064183 98.15994263 195.71580505 C95.81751098 198.07472374 93.47807871 200.43656371 91.14078903 202.80057716 C87.43955344 206.54321198 83.72906247 210.27657656 80.01675415 214.00822449 C69.46157157 224.62095168 58.91633783 235.24349415 48.38623047 245.88110352 C42.57010793 251.75644261 36.74495632 257.62267559 30.90989459 263.47920722 C27.22275172 267.18093601 23.54693198 270.89343533 19.87921596 274.61440814 C17.58581187 276.93570342 15.28184938 279.24629501 12.97486496 281.55408669 C11.91355717 282.61993397 10.8565023 283.69003725 9.80426788 284.76484299 C2.68286999 292.03264855 -4.40543391 298.78689408 -15 299.625 C-21.89112026 299.23432232 -28.36563999 296.21329896 -33 291.0625 C-37.00431089 284.93089895 -37.89465415 279.19198457 -37 272 C-34.0647886 263.01190293 -27.53445368 256.85139094 -20.9675293 250.39990234 C-19.84257829 249.27636429 -18.71873226 248.15171897 -17.59590149 247.02606201 C-14.56606055 243.99479521 -11.52112993 240.97911979 -8.47311378 237.96614408 C-5.28238662 234.80681925 -2.10595252 231.63318798 1.07206726 228.46109009 C7.08262788 222.46602724 13.10581153 216.48381696 19.13371104 210.50619376 C25.99971731 203.69620773 32.85141493 196.87190169 39.70198691 190.04639506 C53.78553515 176.01501283 67.8868288 162.00158213 82 148 C80.47095623 144.37858874 78.3221994 142.08697551 75.54118347 139.33432007 C75.08564459 138.88060016 74.6301057 138.42688026 74.16076261 137.95941126 C72.6355382 136.44258968 71.10330017 134.9330562 69.57104492 133.42333984 C68.47496309 132.33600949 67.37935817 131.2481982 66.28419495 130.15994263 C63.92527626 127.81751098 61.56343629 125.47807871 59.19942284 123.14078903 C55.45678802 119.43955344 51.72342344 115.72906247 47.99177551 112.01675415 C37.37904832 101.46157157 26.75650585 90.91633783 16.11889648 80.38623047 C10.24355739 74.57010793 4.37732441 68.74495632 -1.47920722 62.90989459 C-5.18093601 59.22275172 -8.89343533 55.54693198 -12.61440814 51.87921596 C-14.93570342 49.58581187 -17.24629501 47.28184938 -19.55408669 44.97486496 C-20.61993397 43.91355717 -21.69003725 42.8565023 -22.76484299 41.80426788 C-30.0393893 34.67626502 -36.8717343 27.57453985 -37.5625 16.9375 C-37.14744151 9.97980902 -34.79316806 4.29521266 -29.625 -0.4375 C-20.07120656 -7.72908442 -9.60942794 -6.18561882 0 0 Z " fill="#000000" transform="translate(141,109)"/>
</svg>
