<?xml version="1.0" encoding="UTF-8"?>
<svg version="1.1" xmlns="http://www.w3.org/2000/svg" width="512" height="512">
<path d="M0 0 C0.86722687 -0.00983917 1.73445374 -0.01967834 2.62796021 -0.02981567 C22.26271254 -0.20658299 41.30170802 -0.0179796 60.56640625 4.23828125 C62.16959717 4.59237061 62.16959717 4.59237061 63.80517578 4.95361328 C93.85435955 11.85722519 122.49032411 24.24804109 147.56640625 42.23828125 C148.20352539 42.68751953 148.84064453 43.13675781 149.49707031 43.59960938 C159.72927766 50.84427415 168.9391827 58.8840414 177.91455078 67.62890625 C179.27720521 68.95651755 180.65256306 70.27107695 182.03125 71.58203125 C187.36531956 76.73653807 191.96750764 82.42833934 196.56640625 88.23828125 C197.7575 89.70394531 197.7575 89.70394531 198.97265625 91.19921875 C214.49072507 110.6950204 225.93592161 132.94928072 234.56640625 156.23828125 C234.81374512 156.90037598 235.06108398 157.5624707 235.31591797 158.24462891 C239.39346487 169.31308776 242.17848443 180.70193747 244.56640625 192.23828125 C244.73446777 193.02332031 244.9025293 193.80835938 245.07568359 194.6171875 C250.50850631 221.23520389 250.40611838 253.70861383 244.56640625 280.23828125 C244.21980957 281.85114014 244.21980957 281.85114014 243.86621094 283.49658203 C235.76056057 320.31866545 220.6363398 354.99614482 196.56640625 384.23828125 C196.12393555 384.78226562 195.68146484 385.32625 195.22558594 385.88671875 C183.17729082 400.62656394 169.91216123 413.95320834 154.56640625 425.23828125 C153.460659 426.07385033 152.35518945 426.90978702 151.25 427.74609375 C130.54492798 443.19110518 107.15995094 454.53069041 82.56640625 462.23828125 C81.71240234 462.50769531 80.85839844 462.77710938 79.97851562 463.0546875 C57.23350978 470.08712396 34.90113132 472.60012417 11.19140625 472.67578125 C10.27454041 472.68204529 9.35767456 472.68830933 8.4130249 472.69476318 C-9.37344706 472.77162298 -26.71769117 470.79861157 -43.99609375 466.48828125 C-45.03709229 466.23224121 -46.07809082 465.97620117 -47.15063477 465.71240234 C-88.03484685 455.35319534 -124.13040339 434.3822804 -154.43359375 405.23828125 C-154.9248877 404.76890137 -155.41618164 404.29952148 -155.92236328 403.81591797 C-171.31685099 389.04238439 -183.98078531 371.79358909 -194.43359375 353.23828125 C-194.82901367 352.54847168 -195.22443359 351.85866211 -195.63183594 351.14794922 C-207.32396702 330.60558886 -215.55459649 308.35175876 -220.43359375 285.23828125 C-220.74683594 283.79485352 -220.74683594 283.79485352 -221.06640625 282.32226562 C-227.36962598 251.94314014 -227.15760617 217.51323166 -220.43359375 187.23828125 C-220.19753418 186.1709375 -219.96147461 185.10359375 -219.71826172 184.00390625 C-209.89729429 141.25008802 -188.75193867 102.80557961 -158.43359375 71.23828125 C-157.94745605 70.73022949 -157.46131836 70.22217773 -156.96044922 69.69873047 C-150.19163323 62.66542151 -143.18316557 56.19949035 -135.43359375 50.23828125 C-134.89959961 49.82255859 -134.36560547 49.40683594 -133.81542969 48.97851562 C-96.02649729 19.70997934 -48.16263684 0.4546892 0 0 Z M-116.79785156 67.97705078 C-118.23666453 69.08644 -119.68954683 70.17753147 -121.14453125 71.265625 C-135.6199183 82.51188724 -148.84293209 96.28069091 -159.43359375 111.23828125 C-159.84867188 111.81964844 -160.26375 112.40101563 -160.69140625 113 C-183.52827507 145.29385437 -199.40582723 185.15852023 -199.63671875 225.12890625 C-199.6473082 226.35659477 -199.6473082 226.35659477 -199.65811157 227.60908508 C-199.94407591 252.5832985 -199.94407591 252.5832985 -196.43359375 277.23828125 C-196.23491699 278.14175293 -196.03624023 279.04522461 -195.83154297 279.97607422 C-191.28451594 300.08857955 -184.21994315 319.09891219 -174.43359375 337.23828125 C-174.1195459 337.83157227 -173.80549805 338.42486328 -173.48193359 339.03613281 C-159.39018528 365.52657631 -137.81956136 389.83938163 -113.43359375 407.23828125 C-112.84932617 407.65625977 -112.26505859 408.07423828 -111.66308594 408.50488281 C-89.57734534 424.11948943 -64.80671816 435.94175052 -38.43359375 442.23828125 C-37.29253174 442.51212646 -37.29253174 442.51212646 -36.12841797 442.79150391 C13.99313895 454.40318352 67.49504744 446.95805979 112.56640625 422.23828125 C113.61803955 421.66207031 113.61803955 421.66207031 114.69091797 421.07421875 C124.64549946 415.55502311 133.77839543 409.46115232 142.56640625 402.23828125 C143.0862207 401.81998047 143.60603516 401.40167969 144.14160156 400.97070312 C158.28566559 389.58242785 170.80143264 376.86577031 181.56640625 362.23828125 C182.19804687 361.39007813 182.8296875 360.541875 183.48046875 359.66796875 C206.63115118 327.63757251 222.54095918 287.28223422 222.76953125 247.4453125 C222.7801207 246.21550156 222.7801207 246.21550156 222.79092407 244.96084595 C223.0802193 219.93968554 223.0802193 219.93968554 219.56640625 195.23828125 C219.36772949 194.33480957 219.16905273 193.43133789 218.96435547 192.50048828 C214.4188903 172.39489141 207.36609545 153.36529255 197.56640625 135.23828125 C197.24704102 134.63967285 196.92767578 134.04106445 196.59863281 133.42431641 C182.32679969 106.84393279 161.1158768 82.75383694 136.56640625 65.23828125 C135.98213867 64.82030273 135.39787109 64.40232422 134.79589844 63.97167969 C59.64129942 10.83741896 -43.52622861 11.45032781 -116.79785156 67.97705078 Z " fill="#000000" transform="translate(244.43359375,19.76171875)"/>
<path d="M0 0 C7.84682004 5.53208092 13.82211087 13.08173784 15.79296875 22.609375 C15.88904354 24.42847409 15.93206535 26.25067965 15.94013977 28.07229614 C15.94729507 29.18242569 15.95445038 30.29255524 15.96182251 31.43632507 C15.96451141 32.64988174 15.96720032 33.86343842 15.9699707 35.11376953 C15.9765419 36.39551559 15.9831131 37.67726166 15.98988342 38.99784851 C16.01088391 43.24594886 16.02128409 47.4940494 16.03125 51.7421875 C16.03529947 53.20802707 16.03941645 54.67386646 16.04360008 56.13970566 C16.06264529 63.0296189 16.07687605 69.9195215 16.08521205 76.80945599 C16.09497334 84.74513308 16.12126644 92.68053042 16.16171294 100.61610901 C16.19194863 106.76067111 16.20668808 112.90515336 16.20999306 119.04978836 C16.21233564 122.71441126 16.22119142 126.37873509 16.24645424 130.04327774 C16.2742306 134.1385663 16.26988118 138.23323628 16.26293945 142.32861328 C16.27574951 143.53002457 16.28855957 144.73143585 16.30175781 145.96925354 C16.23486288 156.82694674 13.24853798 165.58296172 5.79296875 173.609375 C-1.55229502 180.58333972 -10.13734696 183.7788602 -20.20703125 184.109375 C-31.44340605 183.7405662 -40.47471043 179.72231269 -48.1484375 171.5390625 C-55.67734232 162.51695109 -56.65403779 153.94188441 -56.61108398 142.4296875 C-56.61794724 141.13585144 -56.62481049 139.84201538 -56.63188171 138.50897217 C-56.64971777 134.98414694 -56.6486632 131.45957194 -56.64293933 127.93471527 C-56.6398342 124.98252407 -56.64595442 122.03038003 -56.65197808 119.07819557 C-56.66598969 112.11003264 -56.66448957 105.14199241 -56.65307617 98.17382812 C-56.64159218 91.00448043 -56.65568276 83.83550671 -56.68247265 76.66620827 C-56.70467709 70.49096368 -56.71125656 64.31583608 -56.70539623 58.14055443 C-56.70203748 54.46098234 -56.70436941 50.78165002 -56.72164726 47.10211182 C-56.74008289 42.99752346 -56.72588078 38.89365651 -56.70874023 34.7890625 C-56.7184082 33.58256042 -56.72807617 32.37605835 -56.73803711 31.13299561 C-56.67622825 24.05051665 -55.71650053 18.78890578 -52.20703125 12.609375 C-51.62953125 11.578125 -51.05203125 10.546875 -50.45703125 9.484375 C-38.11234745 -6.28938764 -17.19172339 -10.83230713 0 0 Z M-30.20703125 24.609375 C-32.79187254 30.19058844 -32.48899518 35.80518208 -32.46582031 41.82788086 C-32.46932495 42.94892715 -32.47282959 44.06997345 -32.47644043 45.22499084 C-32.4852312 48.92479677 -32.47941742 52.62441093 -32.47265625 56.32421875 C-32.47400375 58.89962297 -32.475945 61.47502695 -32.47845459 64.0504303 C-32.48140234 69.44632628 -32.47731118 74.84215045 -32.46777344 80.23803711 C-32.45689551 86.46375584 -32.46041197 92.68934349 -32.47142625 98.91505903 C-32.48161985 104.91864187 -32.4805101 110.92216095 -32.47466278 116.92575264 C-32.47332993 119.47381166 -32.47496121 122.02187402 -32.47962189 124.56992912 C-32.48470975 128.13386727 -32.47694452 131.69755506 -32.46582031 135.26147461 C-32.46986877 136.31156708 -32.47391724 137.36165955 -32.47808838 138.443573 C-32.44119478 144.83489573 -32.25704644 150.4933519 -28.64453125 155.984375 C-25.02054109 158.40036844 -21.52254292 158.81009647 -17.20703125 158.609375 C-13.46997751 157.06580933 -11.25373533 155.08877193 -9.20703125 151.609375 C-8.38268439 148.2460375 -8.07880365 145.10760766 -8.06658936 141.65139771 C-8.06087921 140.67859863 -8.05516907 139.70579956 -8.04928589 138.70352173 C-8.04816803 137.64780975 -8.04705017 136.59209778 -8.04589844 135.50439453 C-8.04093353 134.38349426 -8.03596863 133.26259399 -8.03085327 132.10772705 C-8.01625732 128.40254094 -8.00943449 124.69739763 -8.00390625 120.9921875 C-7.99815344 118.4153544 -7.99239572 115.83852131 -7.9866333 113.26168823 C-7.97747259 108.54982406 -7.97116881 103.83797697 -7.96813655 99.12610543 C-7.96365591 92.20299766 -7.94610164 85.28008732 -7.91713595 78.35703957 C-7.89287452 72.34865855 -7.88519037 66.34037064 -7.883461 60.33193588 C-7.88043514 57.78107502 -7.87240891 55.23021498 -7.85927582 52.67938614 C-7.84221017 49.11048685 -7.84409699 45.54206814 -7.85058594 41.97314453 C-7.84137115 40.92148102 -7.83215637 39.8698175 -7.82266235 38.7862854 C-7.86275596 31.74228107 -8.52777141 26.59483597 -13.39453125 21.171875 C-20.21458819 17.38295448 -25.1628976 19.08484767 -30.20703125 24.609375 Z " fill="#000000" transform="translate(276.20703125,208.390625)"/>
<path d="M0 0 C9.2885078 6.04644574 16.30704248 13.66242586 19.23828125 24.45703125 C20.46037108 35.51909764 20.10526593 45.98365476 13.25 55.1015625 C7.15310061 62.29358717 -0.02143748 68.60191805 -9.76831055 69.67871094 C-22.17165 70.3332112 -31.31823533 69.47747693 -41.07421875 61.20703125 C-47.77198818 54.80366927 -52.59619898 47.78820009 -53.09765625 38.28515625 C-53.36515737 24.97083003 -51.61687307 16.57635933 -42.1328125 6.65625 C-31.30988012 -3.38215351 -13.59314718 -6.64397349 0 0 Z M-26.76171875 27.45703125 C-28.37601798 30.68562972 -28.35742532 33.96696778 -27.76171875 37.45703125 C-26.0256977 40.4821127 -23.92591738 42.87493194 -20.76171875 44.45703125 C-15.63801477 45.0643197 -15.63801477 45.0643197 -10.9375 43.41015625 C-7.13419131 40.2791031 -5.87508508 38.59069457 -5.38671875 33.70703125 C-5.411131 30.35645057 -6.00570521 28.60808593 -8.13671875 26.01953125 C-11.66657735 22.5737169 -13.69008395 22.06147289 -18.65625 22.09765625 C-22.37765328 22.73284939 -24.16484724 24.79682141 -26.76171875 27.45703125 Z " fill="#000000" transform="translate(272.76171875,122.54296875)"/>
</svg>
