<?xml version="1.0" encoding="UTF-8"?>
<svg version="1.1" xmlns="http://www.w3.org/2000/svg" width="512" height="512">
<path d="M0 0 C3.63459908 2.34229719 6.2120842 4.68029176 7.41045284 8.93596172 C7.94798112 12.78183062 7.9466814 16.5878234 7.93275452 20.46211243 C7.93360894 21.33209765 7.93446337 22.20208288 7.93534368 23.09843129 C7.93699038 26.01266331 7.93149034 28.92683774 7.92602539 31.84106445 C7.92574332 33.93044534 7.92590164 36.01982632 7.9264679 38.10920715 C7.92675509 43.78229253 7.92087093 49.45535681 7.91389394 55.12843728 C7.90764744 61.05683043 7.90705557 66.98522406 7.90586853 72.91362 C7.90275905 84.14031979 7.8945508 95.36700985 7.88451904 106.59370536 C7.87125732 121.76403556 7.8658549 136.93436841 7.86001682 152.10470295 C7.85061067 176.00730925 7.83068918 199.90989503 7.8125 223.8125 C42.4625 223.8125 77.1125 223.8125 112.8125 223.8125 C112.76609375 215.03527344 112.7196875 206.25804687 112.671875 197.21484375 C112.64881642 190.9213154 112.62831526 184.62781907 112.61148453 178.33427525 C112.58938489 170.19695675 112.56140166 162.05980364 112.51074219 153.92260742 C112.47062953 147.47637494 112.44500974 141.0302677 112.43614602 134.58391386 C112.43097212 131.17669973 112.41898182 127.76984362 112.38957977 124.36274529 C112.17985373 97.02573286 112.17985373 97.02573286 116.8125 84.8125 C117.22513344 83.69121201 117.22513344 83.69121201 117.64610291 82.54727173 C121.10860816 73.97674129 126.24751246 67.20972807 132.8125 60.8125 C133.47636719 60.11640625 134.14023438 59.4203125 134.82421875 58.703125 C147.24261237 46.49761813 164.58547604 41.24534538 181.70654297 41.39233398 C199.38031715 42.05834546 215.46739509 49.14365982 227.8125 61.8125 C228.50859375 62.47636719 229.2046875 63.14023437 229.921875 63.82421875 C234.25964117 68.23764363 237.29216901 73.04565543 240.125 78.5 C240.45064941 79.11045166 240.77629883 79.72090332 241.11181641 80.34985352 C248.31212675 95.01070382 247.22012581 111.18514096 247.11668181 127.0692935 C247.09772201 130.47917075 247.09614958 133.88905888 247.09260559 137.29898071 C247.08334107 143.73367039 247.05880453 150.16820421 247.02855712 156.60282576 C246.99151927 164.65966625 246.97526596 172.71653291 246.95898438 180.7734375 C246.92990231 195.11991257 246.86978397 209.46604836 246.8125 223.8125 C281.4625 223.8125 316.1125 223.8125 351.8125 223.8125 C351.78929687 208.58996094 351.76609375 193.36742187 351.7421875 177.68359375 C351.73197143 168.05403578 351.72226105 158.42448173 351.71484375 148.79492188 C351.70296984 133.50218364 351.68900004 118.20946743 351.66162109 102.91674805 C351.64169195 91.77986718 351.62878468 80.64300416 351.62432301 69.50610596 C351.62171484 63.60876353 351.61558122 57.71147213 351.60103989 51.81414604 C351.58746355 46.26319828 351.58327749 40.71232257 351.58628464 35.16135979 C351.5857345 33.1244111 351.5817574 31.08745999 351.57408905 29.05052567 C351.56412708 26.26780259 351.56653577 23.48535092 351.57199097 20.70262146 C351.56325244 19.49588474 351.56325244 19.49588474 351.55433738 18.26476949 C351.58227502 12.98595297 351.7691441 7.35104243 355.21484375 3.0703125 C360.22750627 -0.62859877 363.57081015 -1.70764082 369.8125 -1.1875 C373.74828885 0.22389969 376.13239219 1.73433071 378.38690281 5.30838776 C380.21491032 9.80162297 380.23278567 13.53782819 380.20018005 18.3392334 C380.20825836 19.76777468 380.20825836 19.76777468 380.21649987 21.22517538 C380.23079396 24.4126186 380.22367204 27.59964739 380.21655273 30.78710938 C380.22225548 33.07379999 380.22921937 35.36048775 380.23735046 37.64717102 C380.25530617 43.85573926 380.25410906 50.06416635 380.24840808 56.27275276 C380.24532013 61.45440806 380.25140421 66.63603609 380.25744683 71.81768751 C380.27230142 84.73861864 380.26867181 97.65946127 380.25658352 110.58039087 C380.24664872 121.79867613 380.25959668 133.01679651 380.28351771 144.23505634 C380.30790548 155.75916449 380.31711773 167.28317709 380.31086498 178.80731249 C380.30749068 185.27521382 380.30994221 191.74297888 380.32711601 198.21086121 C380.34255649 204.29137612 380.33866152 210.37157554 380.31981087 216.45207787 C380.31611718 218.68456651 380.31925604 220.91707838 380.32969666 223.14954567 C380.34285429 226.19531869 380.33140489 229.24003919 380.31370544 232.2857666 C380.32331045 233.17078779 380.33291546 234.05580897 380.34281152 234.96764898 C380.27771664 240.4056186 379.41126692 243.48461041 375.8125 247.8125 C371.58872186 251.64029894 367.73700321 251.93636301 362.17753601 251.95294189 C361.02941437 251.95865204 359.88129272 251.96436218 358.69837952 251.97024536 C356.81487038 251.97192215 356.81487038 251.97192215 354.89331055 251.97363281 C353.55434025 251.97826339 352.21537127 251.98328837 350.87640381 251.98867798 C347.24198954 252.00178072 343.60759374 252.00824275 339.97315955 252.01268864 C337.7009791 252.01562273 335.42880367 252.01972817 333.15662575 252.02419281 C326.04299623 252.03786199 318.92937821 252.04753155 311.81573647 252.0513947 C303.61237053 252.05587452 295.40917129 252.07342122 287.20585603 252.1023953 C280.85921822 252.12403124 274.51262726 252.1341 268.16595298 252.13543582 C264.377967 252.13648246 260.59013784 252.14236008 256.80219078 252.16025543 C253.23740336 252.17676939 249.67289011 252.17887568 246.108078 252.17011642 C244.18310041 252.16898256 242.25813177 252.18267414 240.33320618 252.1968689 C234.08431262 252.16677931 229.25642395 252.02334667 223.8125 248.8125 C219.61128648 243.61626223 218.68940806 239.69437158 218.68119812 233.16648865 C218.67518585 231.44035591 218.67518585 231.44035591 218.66905212 229.67935181 C218.6698452 227.79124283 218.6698452 227.79124283 218.6706543 225.86499023 C218.66762126 224.52265814 218.6640994 223.18032708 218.66012573 221.83799744 C218.65224498 218.94825057 218.64709481 216.058516 218.64383507 213.1687603 C218.63791156 208.59090805 218.62135663 204.01313301 218.60249329 199.43531799 C218.59615591 197.86587815 218.58983029 196.29643826 218.58351612 194.72699833 C218.58035031 193.94099849 218.5771845 193.15499865 218.57392275 192.34518063 C218.53191662 181.69099037 218.49889853 171.03683588 218.48657227 160.38256836 C218.47816798 153.19206323 218.4555883 146.00174936 218.4172166 138.81133991 C218.39753167 135.01091852 218.38502591 131.21078253 218.39005089 127.41030693 C218.39472834 123.8289587 218.38072536 120.24814981 218.35303879 116.66691017 C218.34293355 114.74274676 218.35232748 112.81851102 218.36253357 110.89434814 C218.23676638 99.08701394 215.23956232 89.33605541 206.8125 80.8125 C197.18884205 72.62283082 188.24864992 70.01103484 175.75390625 70.46875 C165.14930495 71.39363099 156.68449039 76.08743736 149.8046875 84.171875 C142.58005372 93.90548202 141.37003932 102.50861282 141.44360352 114.46704102 C141.44113101 115.82483218 141.43728806 117.18262143 141.43218994 118.54040527 C141.42389691 121.44759583 141.42462083 124.35459018 141.43237495 127.26178169 C141.44402478 131.8644671 141.43174064 136.46690365 141.41575623 141.06956482 C141.37967914 152.49724866 141.37333147 163.92492546 141.37585449 175.35266113 C141.3775679 184.2452764 141.37039357 193.13768636 141.33587593 202.03024429 C141.31913438 206.60018478 141.32083011 211.1696231 141.33669865 215.7395612 C141.34251527 218.58729298 141.33172114 221.43478898 141.31645203 224.28247833 C141.31098028 226.22032517 141.32529437 228.15819671 141.34031677 230.09599304 C141.28249554 237.14489415 140.63615416 241.8305152 136.8125 247.8125 C132.76387862 251.73460196 128.63094115 251.9366793 123.17753601 251.95294189 C122.02941437 251.95865204 120.88129272 251.96436218 119.69837952 251.97024536 C117.81487038 251.97192215 117.81487038 251.97192215 115.89331055 251.97363281 C114.55434025 251.97826339 113.21537127 251.98328837 111.87640381 251.98867798 C108.24198954 252.00178072 104.60759374 252.00824275 100.97315955 252.01268864 C98.7009791 252.01562273 96.42880367 252.01972817 94.15662575 252.02419281 C87.04299623 252.03786199 79.92937821 252.04753155 72.81573647 252.0513947 C64.61237053 252.05587452 56.40917129 252.07342122 48.20585603 252.1023953 C41.85921822 252.12403124 35.51262726 252.1341 29.16595298 252.13543582 C25.377967 252.13648246 21.59013784 252.14236008 17.80219078 252.16025543 C14.23740336 252.17676939 10.67289011 252.17887568 7.108078 252.17011642 C5.18310041 252.16898256 3.25813177 252.18267414 1.33320618 252.1968689 C-4.92763937 252.16672176 -9.71906899 251.99229916 -15.1875 248.8125 C-20.11975556 243.49085585 -20.3361198 239.81447527 -20.33467102 232.77351379 C-20.33834771 231.8252762 -20.3420244 230.87703862 -20.3458125 229.90006655 C-20.35688089 226.70265943 -20.36069852 223.50528477 -20.36450195 220.30786133 C-20.37076424 218.02338558 -20.37741083 215.73891085 -20.38441467 213.45443726 C-20.40184674 207.23321325 -20.41238253 201.01199695 -20.4206202 194.79075456 C-20.42576588 190.90613753 -20.43184181 187.02152291 -20.43813133 183.13690758 C-20.45500466 172.38215398 -20.46963925 161.62740411 -20.47688007 150.87263966 C-20.47878999 148.08102734 -20.48071031 145.28941502 -20.48266602 142.49780273 C-20.48314976 141.80395667 -20.4836335 141.1101106 -20.4841319 140.3952389 C-20.49243033 129.15798776 -20.51776317 117.92084313 -20.55024669 106.68363849 C-20.58332321 95.14723779 -20.60099668 83.6109072 -20.60452431 72.07445735 C-20.60687764 65.59694382 -20.61587496 59.11959857 -20.64098549 52.6421299 C-20.66422852 46.54773881 -20.66851445 40.45362722 -20.65822411 34.35920334 C-20.65772771 32.12229039 -20.66407845 29.88536386 -20.67778015 27.64849281 C-20.69544238 24.59412706 -20.68842027 21.54077049 -20.67524719 18.48640442 C-20.68621644 17.6015676 -20.69718568 16.71673077 -20.70848733 15.80508071 C-20.64795674 9.99012731 -19.57662898 6.57791088 -16.1875 1.8125 C-10.8710974 -1.84991068 -6.02437626 -2.24437547 0 0 Z " fill="#000000" transform="translate(76.1875,233.1875)"/>
<path d="M0 0 C4.21265042 2.52541317 8.0651205 5.43042545 11.95019531 8.42871094 C14.88434198 10.67789721 17.86589445 12.86062821 20.84619141 15.0480957 C23.28144848 16.8355833 25.7111677 18.6304215 28.140625 20.42578125 C32.7380337 23.8152254 37.36407127 27.16351685 42 30.5 C52.19362711 37.8399468 62.2940177 45.30454712 72.39550781 52.77050781 C80.90093735 59.05501735 89.41808621 65.32019635 98 71.5 C108.19341866 78.84024221 118.29401291 86.30454358 128.39550781 93.77050781 C136.90093735 100.05501735 145.41808621 106.32019635 154 112.5 C164.19341866 119.84024221 174.29401291 127.30454358 184.39550781 134.77050781 C192.90093926 141.05501877 201.41817466 147.32007127 210 153.5 C216.37741703 158.09362757 222.73146175 162.71762725 229.0625 167.375 C229.82369141 167.93380859 230.58488281 168.49261719 231.36914062 169.06835938 C233.58664114 170.70281856 235.79542983 172.34814672 238 174 C238.80937012 174.60360352 239.61874023 175.20720703 240.45263672 175.82910156 C241.64977295 176.73740723 241.64977295 176.73740723 242.87109375 177.6640625 C243.59095459 178.20756348 244.31081543 178.75106445 245.05249023 179.31103516 C247.91214487 181.79105155 249.79988702 183.80653338 250.43359375 187.5859375 C250.43986429 192.06310458 250.28197753 195.34205244 248.5 199.5 C245.22565178 202.77434822 242.54029197 204.19133588 238 205 C230.68306356 204.57702588 225.72341075 201.16189791 220.125 196.75 C218.45210691 195.47488775 216.77892151 194.20015891 215.10546875 192.92578125 C214.25903809 192.27303223 213.41260742 191.6202832 212.54052734 190.94775391 C208.54827421 187.88700093 204.4930125 184.91360808 200.4375 181.9375 C199.65197754 181.35838867 198.86645508 180.77927734 198.05712891 180.18261719 C192.72807735 176.25571682 187.37177342 172.36819372 182 168.5 C171.80658134 161.15975779 161.70598709 153.69545642 151.60449219 146.22949219 C143.09906265 139.94498265 134.58191379 133.67980365 126 127.5 C115.80658134 120.15975779 105.70598709 112.69545642 95.60449219 105.22949219 C87.09906265 98.94498265 78.58191379 92.67980365 70 86.5 C59.80658134 79.15975779 49.70598709 71.69545642 39.60449219 64.22949219 C37.21606245 62.46472424 34.82701463 60.70079869 32.4375 58.9375 C31.65850342 58.36257812 30.87950684 57.78765625 30.0769043 57.1953125 C23.78420752 52.55948154 17.4536717 47.97739653 11.09472656 43.43286133 C6.50019451 40.1364031 2.06334024 36.72689639 -2.17578125 32.9765625 C-4.77908115 31.582933 -6.1964151 32.22551324 -9 33 C-11.05595464 34.14967505 -11.05595464 34.14967505 -12.9765625 35.66796875 C-13.71970703 36.22419922 -14.46285156 36.78042969 -15.22851562 37.35351562 C-16.01935547 37.95873047 -16.81019531 38.56394531 -17.625 39.1875 C-19.33576513 40.47288569 -21.04670754 41.75803547 -22.7578125 43.04296875 C-23.62954102 43.70216309 -24.50126953 44.36135742 -25.39941406 45.04052734 C-29.40805691 48.0609336 -33.45443361 51.02934663 -37.5 54 C-39.08226093 55.16505272 -40.66429147 56.3304184 -42.24609375 57.49609375 C-43.02968262 58.07343262 -43.81327148 58.65077148 -44.62060547 59.24560547 C-47.00989519 61.007296 -49.39770073 62.77098098 -51.78515625 64.53515625 C-60.23340257 70.77471072 -68.71006584 76.9706422 -77.23291016 83.10791016 C-85.87249604 89.33662403 -94.4348494 95.66954014 -103 102 C-113.04094886 109.42121495 -123.10066404 116.81171806 -133.23291016 124.10791016 C-141.87249604 130.33662403 -150.4348494 136.66954014 -159 143 C-169.04094886 150.42121495 -179.10066404 157.81171806 -189.23291016 165.10791016 C-194.65815414 169.01924259 -200.05520443 172.96729798 -205.4375 176.9375 C-206.21786621 177.51306641 -206.99823242 178.08863281 -207.80224609 178.68164062 C-211.90688339 181.71135439 -216.00742336 184.74653322 -220.10546875 187.78515625 C-220.94601807 188.40720947 -221.78656738 189.0292627 -222.65258789 189.67016602 C-224.24297285 190.84721107 -225.83210751 192.02594836 -227.41967773 193.20678711 C-243.52303296 205.11776304 -243.52303296 205.11776304 -250 205 C-254.44334593 204.11133081 -257.28145064 202.71854936 -260.5 199.5 C-262.55929461 194.69497924 -263.29149061 190.11735797 -262 185 C-258.48162359 179.57419136 -253.61266808 175.98295827 -248.3125 172.4375 C-246.79428901 171.39379225 -245.277411 170.34814342 -243.76171875 169.30078125 C-242.97845215 168.76146973 -242.19518555 168.2221582 -241.38818359 167.66650391 C-237.41306985 164.89262061 -233.51941422 162.01058622 -229.625 159.125 C-228.83528809 158.54105469 -228.04557617 157.95710937 -227.23193359 157.35546875 C-225.62472671 156.16644204 -224.01795678 154.97682449 -222.41162109 153.78662109 C-211.57523273 145.75861036 -200.71109706 137.77282804 -189.76708984 129.89208984 C-181.12750396 123.66337597 -172.5651506 117.33045986 -164 111 C-153.95905114 103.57878505 -143.89933596 96.18828194 -133.76708984 88.89208984 C-125.12750396 82.66337597 -116.5651506 76.33045986 -108 70 C-97.95905114 62.57878505 -87.89933596 55.18828194 -77.76708984 47.89208984 C-69.12750396 41.66337597 -60.5651506 35.33045986 -52 29 C-45.67344191 24.32407264 -39.34126108 19.65597098 -33 15 C-32.17951172 14.39639648 -31.35902344 13.79279297 -30.51367188 13.17089844 C-28.0752493 11.37973502 -25.63210251 9.59521651 -23.1875 7.8125 C-22.45265381 7.27165771 -21.71780762 6.73081543 -20.96069336 6.17358398 C-8.37775048 -2.96557539 -8.37775048 -2.96557539 0 0 Z " fill="#000000" transform="translate(262,28)"/>
</svg>
