<?xml version="1.0" encoding="UTF-8"?>
<svg version="1.1" xmlns="http://www.w3.org/2000/svg" width="512" height="512">
<path d="M0 0 C1.34440309 -0.00734866 2.68879989 -0.0159372 4.03318787 -0.02566528 C7.66974874 -0.04780895 11.30608254 -0.0508155 14.94270158 -0.04891777 C17.98665759 -0.04879771 21.03056612 -0.05737641 24.07450885 -0.06569529 C31.26129361 -0.08490448 38.44796223 -0.08782262 45.63476562 -0.08105469 C53.0290536 -0.07441896 60.4228421 -0.09726468 67.81702882 -0.13436842 C74.18248312 -0.1651416 80.54777739 -0.17641714 86.91330451 -0.1725316 C90.70757749 -0.17047155 94.50146183 -0.17582676 98.29566383 -0.20042419 C101.86725085 -0.22281501 105.43803067 -0.22071301 109.00962257 -0.20049667 C110.93042472 -0.19550352 112.85124276 -0.21501706 114.77194214 -0.23550415 C123.23156397 -0.15409658 130.21968439 1.30458661 136.60545063 7.17533112 C143.85291184 14.85674271 144.13973466 22.58994657 144.1159668 32.72387695 C144.12331545 34.06828004 144.131904 35.41267684 144.14163208 36.75706482 C144.16377575 40.3936257 144.1667823 44.0299595 144.16488457 47.66657853 C144.16476451 50.71053454 144.1733432 53.75444307 144.18166208 56.7983858 C144.20087127 63.98517056 144.20378942 71.17183919 144.19702148 78.35864258 C144.19038576 85.75293055 144.21323148 93.14671906 144.25033522 100.54090577 C144.28110839 106.90636007 144.29238393 113.27165434 144.2884984 119.63718146 C144.28643835 123.43145444 144.29179355 127.22533878 144.31639099 131.01954079 C144.33878181 134.59112781 144.33667981 138.16190762 144.31646347 141.73349953 C144.31147031 143.65430167 144.33098386 145.57511972 144.35147095 147.49581909 C144.27003433 155.95845956 142.80419195 162.921625 136.95626068 169.32493305 C129.80043494 176.03121808 123.0468537 177.05409701 113.42651367 176.82617188 C105.09642103 175.91902042 99.62028366 172.03454059 94.16870117 165.87304688 C89.34131735 157.83167541 89.23063813 149.59136637 89.18432617 140.41601562 C89.16637497 139.09698746 89.14842377 137.77795929 89.12992859 136.41896057 C89.08277102 132.94209678 89.05274193 129.46529629 89.02648926 125.98822021 C88.996509 122.42821759 88.95003957 118.86843245 88.9050293 115.30859375 C88.81938707 108.3458278 88.75186983 101.3829891 88.69604492 94.41992188 C88.26112008 94.85945568 87.82619524 95.29898949 87.37809086 95.7518425 C76.77431991 106.46623419 66.15660186 117.16659018 55.52333164 127.85169601 C50.38140196 133.01936198 45.24423153 138.19159513 40.11816406 143.375 C35.64811403 147.89502543 31.16922167 152.40606937 26.67967552 156.90673375 C24.30473041 159.28817375 21.93432114 161.6737516 19.5744648 164.07015228 C16.93199461 166.74901922 14.27418236 169.41172477 11.61230469 172.07128906 C10.45459564 173.25596268 10.45459564 173.25596268 9.27349854 174.46456909 C2.72401469 180.95288803 -3.79012584 184.99345026 -13.24145508 184.98242188 C-21.00016874 184.72324071 -26.59404978 182.77851038 -32.36645508 177.55273438 C-39.28604734 170.14300433 -40.62295935 164.16097565 -40.89770508 154.21289062 C-39.3983986 144.63508408 -33.66746664 138.05998133 -26.93359375 131.48193359 C-26.10381012 130.65141983 -25.27402649 129.82090607 -24.4190979 128.96522522 C-21.69839913 126.2479844 -18.9604772 123.5488443 -16.22192383 120.84960938 C-14.32224753 118.95926748 -12.42358244 117.06796175 -10.52619934 115.17532349 C-6.05622719 110.72082265 -1.5736776 106.2792096 2.91366071 101.84221089 C8.02641105 96.7855643 13.12478178 91.7145224 18.2220608 86.64228797 C28.69758437 76.21887024 39.19083901 65.81342586 49.69604492 55.41992188 C48.96434586 55.41405563 48.23264679 55.40818939 47.47877502 55.40214539 C40.55007818 55.34400572 33.62165154 55.27180879 26.69326878 55.18420696 C23.13212452 55.13966567 19.57109039 55.10037509 16.00976562 55.07348633 C11.90620823 55.04226532 7.80324793 54.9874841 3.69995117 54.93164062 C2.43397598 54.9252507 1.16800079 54.91886078 -0.13633728 54.91227722 C-10.86384652 54.73540886 -18.5045402 53.22042699 -26.35083008 45.63476562 C-32.33439186 38.84940657 -33.01683319 31.98500052 -32.74926758 23.08398438 C-31.79778283 15.25510108 -28.3750671 9.65101184 -22.34301758 4.67382812 C-14.8864246 0.08845199 -8.64207937 -0.02026891 0 0 Z " fill="#000000" transform="translate(96.303955078125,271.580078125)"/>
<path d="M0 0 C6.0729308 3.53588405 11.67411031 9.10667425 14.12109375 15.83203125 C16.15054389 25.79968461 14.77283583 33.420309 9.5625 42 C6.988197 45.21008395 4.13341674 48.06477285 1.19213867 50.93798828 C0.36235504 51.76850204 -0.46742859 52.59901581 -1.32235718 53.45469666 C-4.04305595 56.17193748 -6.78097788 58.87107758 -9.51953125 61.5703125 C-11.41920755 63.46065439 -13.31787264 65.35196012 -15.21525574 67.24459839 C-19.68522789 71.69909922 -24.16777748 76.14071228 -28.65511578 80.57771099 C-33.76786613 85.63435758 -38.86623686 90.70539947 -43.96351588 95.77763391 C-54.43903944 106.20105164 -64.93229409 116.60649601 -75.4375 127 C-74.70580093 127.00586624 -73.97410187 127.01173248 -73.2202301 127.01777649 C-66.29153326 127.07591616 -59.36310661 127.14811309 -52.43472385 127.23571491 C-48.8735796 127.2802562 -45.31254546 127.31954678 -41.7512207 127.34643555 C-37.64766331 127.37765655 -33.54470301 127.43243778 -29.44140625 127.48828125 C-28.17543106 127.49467117 -26.90945587 127.5010611 -25.6051178 127.50764465 C-14.87760856 127.68451301 -7.23691488 129.19949488 0.609375 136.78515625 C6.59293678 143.57051531 7.27537812 150.43492135 7.0078125 159.3359375 C6.05632775 167.1648208 2.63361202 172.76891003 -3.3984375 177.74609375 C-10.85503047 182.33146989 -17.0993757 182.44019079 -25.74145508 182.41992188 C-27.08585817 182.42727053 -28.43025497 182.43585907 -29.77464294 182.44558716 C-33.41120382 182.46773083 -37.04753762 182.47073738 -40.68415666 182.46883965 C-43.72811267 182.46871959 -46.77202119 182.47729828 -49.81596392 182.48561716 C-57.00274868 182.50482635 -64.18941731 182.5077445 -71.3762207 182.50097656 C-78.77050868 182.49434084 -86.16429718 182.51718656 -93.5584839 182.55429029 C-99.92393819 182.58506347 -106.28923247 182.59633901 -112.65475959 182.59245348 C-116.44903257 182.59039343 -120.24291691 182.59574863 -124.03711891 182.62034607 C-127.60870593 182.64273689 -131.17948575 182.64063489 -134.75107765 182.62041855 C-136.6718798 182.61542539 -138.59269784 182.63493894 -140.51339722 182.65542603 C-148.97301905 182.57401845 -155.96113947 181.11533526 -162.34690571 175.24459076 C-169.59436692 167.56317917 -169.88118974 159.82997531 -169.85742188 149.69604492 C-169.86477053 148.35164183 -169.87335907 147.00724503 -169.88308716 145.66285706 C-169.90523083 142.02629618 -169.90823738 138.38996238 -169.90633965 134.75334334 C-169.90621959 131.70938733 -169.91479828 128.66547881 -169.92311716 125.62153608 C-169.94232635 118.43475132 -169.9452445 111.24808269 -169.93847656 104.0612793 C-169.93184084 96.66699132 -169.95468656 89.27320282 -169.99179029 81.8790161 C-170.02256347 75.51356181 -170.03383901 69.14826753 -170.02995348 62.78274041 C-170.02789343 58.98846743 -170.03324863 55.19458309 -170.05784607 51.40038109 C-170.08023689 47.82879407 -170.07813489 44.25801425 -170.05791855 40.68642235 C-170.05292539 38.7656202 -170.07243894 36.84480216 -170.09292603 34.92410278 C-170.0114894 26.46146232 -168.54564703 19.49829687 -162.69771576 13.09498882 C-155.54189002 6.3887038 -148.78830878 5.36582487 -139.16796875 5.59375 C-130.83787611 6.50090145 -125.36173874 10.38538128 -119.91015625 16.546875 C-115.08277242 24.58824647 -114.9720932 32.8285555 -114.92578125 42.00390625 C-114.90783005 43.32293442 -114.88987885 44.64196259 -114.87138367 46.0009613 C-114.82422609 49.4778251 -114.79419701 52.95462559 -114.76794434 56.43170166 C-114.73796408 59.99170429 -114.69149464 63.55148942 -114.64648438 67.11132812 C-114.56084215 74.07409408 -114.49332491 81.03693278 -114.4375 88 C-114.00257516 87.56046619 -113.56765032 87.12093239 -113.11954594 86.66807938 C-102.51577498 75.95368769 -91.89805694 65.25333169 -81.26478672 54.56822586 C-76.12285703 49.40055989 -70.98568661 44.22832674 -65.85961914 39.04492188 C-61.38956911 34.52489644 -56.91067675 30.0138525 -52.4211306 25.51318812 C-50.04618549 23.13174812 -47.67577622 20.74617028 -45.31591988 18.34976959 C-42.67344969 15.67090265 -40.01563744 13.0081971 -37.35375977 10.34863281 C-36.58195374 9.5588504 -35.81014771 8.76906799 -35.01495361 7.95535278 C-25.37744661 -1.59215061 -13.09357048 -5.88811477 0 0 Z " fill="#000000" transform="translate(441.4375,58)"/>
</svg>
