<?xml version="1.0" encoding="UTF-8"?>
<svg version="1.1" xmlns="http://www.w3.org/2000/svg" width="512" height="512">
<path d="M0 0 C1.93272291 -0.00570927 3.86544246 -0.01267568 5.79815674 -0.02079773 C11.02552527 -0.0386833 16.25272552 -0.03756933 21.48011541 -0.03185534 C25.85367599 -0.02875663 30.22720457 -0.03486359 34.60076058 -0.04089409 C44.92364631 -0.0549228 55.24644926 -0.05339198 65.56933594 -0.04199219 C76.19737767 -0.03051433 86.82516695 -0.04458494 97.45317543 -0.07138866 C106.59830523 -0.09358388 115.74335601 -0.10017437 124.88851082 -0.09431225 C130.34156665 -0.09095042 135.79446072 -0.09330617 141.24749374 -0.11056328 C146.37764154 -0.12609114 151.50741696 -0.1220122 156.63755035 -0.10325813 C158.51275947 -0.0995883 160.38799653 -0.10263349 162.26317978 -0.11314392 C181.46422751 -0.21249172 194.9278224 4.20280538 208.97906446 17.95837653 C210.5167295 19.48790895 212.04529895 21.0261863 213.57373047 22.56494141 C214.69617491 23.68031093 215.81945529 24.79483974 216.9434967 25.90859985 C219.96710524 28.90988215 222.97805207 31.92356137 225.98605251 34.94047713 C228.50938206 37.46894996 231.03893551 39.99115059 233.56846547 42.51341802 C239.54068918 48.46869617 245.50264673 54.43411236 251.45800781 60.40625 C257.57873405 66.54389643 263.71566459 72.66498241 269.86098075 78.77800006 C275.15959813 84.04983307 280.4483501 89.33142122 285.72935891 94.6208933 C288.87352045 97.76995772 292.0210492 100.91544081 295.17797089 104.05171776 C298.14758537 107.00283535 301.10456312 109.96608147 304.05270195 112.93864822 C305.12906842 114.01997819 306.20960019 115.09718256 307.2948246 116.16962242 C319.24000181 127.98527816 327.14570609 140.18993157 327.28528684 157.33381641 C327.2792768 158.44044136 327.27326675 159.5470663 327.26707458 160.68722534 C327.27515289 162.48818812 327.27515289 162.48818812 327.2833944 164.32553399 C327.29516439 167.63201227 327.29363198 170.93798206 327.28622758 174.24443936 C327.28147647 177.82055535 327.29402287 181.39661851 327.304245 184.97271729 C327.3214006 191.96850939 327.32227973 198.96421155 327.31703209 205.96001922 C327.31298301 211.64904636 327.3144427 217.33804702 327.31978035 223.02707291 C327.32052877 223.83820954 327.32127719 224.64934617 327.3220483 225.4850627 C327.32357985 227.13313659 327.32511819 228.78121047 327.32666326 230.42928435 C327.34037666 245.86864355 327.33495885 261.30795202 327.32347805 276.74731006 C327.31354752 290.85504525 327.32648527 304.96264926 327.35041224 319.07036422 C327.374827 333.57559156 327.38440524 348.08075786 327.37775952 362.58600533 C327.37427249 370.72182348 327.37646512 378.85754079 327.39401054 386.99334335 C327.40876231 393.91931621 327.40932929 400.8451172 327.39193963 407.7710868 C327.38345148 411.30076499 327.38122592 414.83013656 327.39659119 418.35979843 C327.41308187 422.19565859 327.39823568 426.03105023 327.38059998 429.86691284 C327.39020498 430.96907635 327.39980999 432.07123985 327.40970606 433.20680225 C327.27752578 447.23850549 322.00809335 457.97804364 312.56689453 468.15405273 C302.01626578 478.13946923 290.20392218 480.86491971 276.06472778 480.79173279 C274.8069162 480.79711833 273.54910461 480.80250386 272.25317752 480.8080526 C268.78717813 480.82242894 265.32141811 480.8182872 261.85540605 480.81088579 C258.10751035 480.80613691 254.35966516 480.81867912 250.61178589 480.8289032 C243.27910638 480.8460631 235.94651267 480.84693704 228.6138183 480.84169029 C222.65114546 480.83764203 216.6884979 480.83909994 210.72582626 480.84443855 C209.87583458 480.84518697 209.02584289 480.8459354 208.15009388 480.8467065 C206.42310199 480.84823804 204.6961101 480.84977639 202.96911822 480.85132147 C186.78866809 480.86503641 170.60826635 480.85961595 154.42781733 480.84813625 C139.64109918 480.83820548 124.85450618 480.85114362 110.06780733 480.87507045 C94.86649298 480.8994819 79.66523686 480.90906425 64.46390331 480.90241772 C55.93684745 480.89892997 47.40988782 480.90112812 38.88284683 480.91866875 C31.62383665 480.93341637 24.36499045 480.93399285 17.10598339 480.91659784 C13.40618775 480.90810634 9.70668471 480.90589251 6.0069046 480.92124939 C1.98704393 480.93772756 -2.03211572 480.92290186 -6.05197144 480.90525818 C-7.20860822 480.91486319 -8.365245 480.92446819 -9.55693138 480.93436426 C-23.77162896 480.80644778 -34.54504114 475.67150739 -44.87060547 466.09155273 C-55.96970838 454.36419871 -57.57165207 441.44369273 -57.50828552 425.94485474 C-57.5124629 424.27835351 -57.51794262 422.61185512 -57.52460533 420.94536197 C-57.53902573 416.3848299 -57.53482588 411.82447908 -57.52743852 407.26393723 C-57.52270071 402.33812161 -57.53522213 397.41234485 -57.54545593 392.48654175 C-57.56263728 382.84377501 -57.56348531 373.20107345 -57.55824303 363.55829538 C-57.55419884 355.71919414 -57.55564785 347.88011214 -57.56099129 340.04101181 C-57.56173971 338.92458544 -57.56248813 337.80815908 -57.56325923 336.65790161 C-57.56479074 334.38975772 -57.56632908 332.12161383 -57.5678742 329.85346995 C-57.58159686 308.59125192 -57.57616321 287.3290707 -57.56468899 266.06685351 C-57.55475703 246.62424784 -57.56769708 227.18173735 -57.59162318 207.73914637 C-57.61601821 187.76466274 -57.62562104 167.79022343 -57.61897045 147.81572521 C-57.61547912 136.60589319 -57.61770469 125.39613437 -57.63522148 114.18631363 C-57.64994848 104.64361391 -57.65057232 95.10103892 -57.63315057 85.55834164 C-57.62464234 80.69201707 -57.62248678 75.82591527 -57.63780212 70.95960236 C-57.65166433 66.4997085 -57.64686638 62.04022794 -57.62756289 57.58035789 C-57.62380728 55.97211059 -57.62671214 54.36383005 -57.63717454 52.75561239 C-57.7346693 36.61391251 -53.94702055 24.65991168 -42.80810547 12.65405273 C-30.2065147 0.72754719 -16.40308285 -0.04380541 0 0 Z M-21.05810547 38.15405273 C-24.52441816 43.61612122 -25.37029858 48.84268696 -25.37508106 55.23731804 C-25.37828754 55.89103408 -25.38149402 56.54475011 -25.38479766 57.21827573 C-25.39307272 59.40007356 -25.38718227 61.58159509 -25.38130188 63.76339722 C-25.38432371 65.34694954 -25.38821334 66.93050041 -25.39289445 68.5140487 C-25.40317918 72.85908727 -25.40099141 77.20404337 -25.39671385 81.54908872 C-25.3942475 86.23767058 -25.40325967 90.92623254 -25.41075134 95.61480713 C-25.42350288 104.79775653 -25.42529146 113.98067669 -25.42295108 123.16363345 C-25.42116827 130.62763807 -25.42291677 138.09163381 -25.42717552 145.55563736 C-25.42777071 146.61782914 -25.4283659 147.68002092 -25.42897912 148.77440033 C-25.43019087 150.93222601 -25.43140501 153.09005169 -25.4326215 155.24787737 C-25.4434988 175.48561777 -25.44133365 195.7233415 -25.43523666 215.96108283 C-25.43006735 234.4747105 -25.44132298 252.98828555 -25.46033487 271.5019028 C-25.47970731 290.51237147 -25.48797032 309.52281524 -25.48421162 328.53329384 C-25.48229868 339.2059484 -25.48479627 349.87855817 -25.49892616 360.55120468 C-25.51083335 369.63693776 -25.51225227 378.72259849 -25.500136 387.80833255 C-25.49424267 392.44335309 -25.49316044 397.07824125 -25.5051384 401.71325302 C-25.51598131 405.95839969 -25.51291281 410.2033032 -25.49887671 414.44843842 C-25.4962254 415.98202642 -25.49860997 417.51563338 -25.50661258 419.04920278 C-25.88823662 431.72894046 -25.88823662 431.72894046 -20.84570009 442.97563159 C-14.17325119 449.15424475 -5.91014607 448.6941265 2.59420776 448.66474915 C3.76990173 448.66857469 4.94559569 448.67240024 6.15691674 448.67634171 C9.40742603 448.68485664 12.65779043 448.68444503 15.9083035 448.68016112 C19.41896322 448.67769025 22.92959657 448.68671254 26.44024658 448.69419861 C33.31310552 448.7069377 40.18592537 448.70874028 47.05879413 448.70639835 C52.64636934 448.70461411 58.2339327 448.70636709 63.8215065 448.71062279 C64.6172636 448.71121798 65.4130207 448.71181317 66.23289166 448.71242639 C67.84956534 448.71363816 69.46623902 448.7148523 71.0829127 448.71606877 C86.238883 448.7269413 101.39483105 448.72478319 116.5508026 448.71868392 C130.40853828 448.71351525 144.26620366 448.72476938 158.12392543 448.74378214 C172.36122339 448.76316557 186.5984881 448.77141564 200.83579934 448.76765889 C208.82567478 448.76574758 216.8154904 448.76822754 224.80535507 448.78237343 C231.60739328 448.79429465 238.40933483 448.79568384 245.21137439 448.78358326 C248.67985724 448.77769969 252.14816335 448.77658051 255.61663437 448.78858566 C259.38145802 448.79903314 263.14580742 448.79096769 266.91061401 448.77827454 C268.00021671 448.78564882 269.08981941 448.79302311 270.21244037 448.80062085 C276.86180255 448.75349462 284.05571545 448.47807341 289.46520984 444.12914735 C295.49030669 437.55395419 295.16681599 429.59437383 295.11990356 421.23609924 C295.12161241 420.11939203 295.12332126 419.00268481 295.1250819 417.85213798 C295.12837288 414.11490145 295.11737933 410.37784496 295.10644531 406.640625 C295.10588111 403.9598195 295.10610989 401.27902498 295.10733032 398.59822083 C295.10837762 392.82901208 295.10211727 387.05984867 295.09085464 381.29065132 C295.07458154 372.94942829 295.06938979 364.60822712 295.06687866 356.26698994 C295.0625044 342.7329939 295.04920259 329.199022 295.03027344 315.66503906 C295.01190768 302.52018352 294.99775458 289.37533454 294.98925781 276.23046875 C294.98873237 275.41984502 294.98820692 274.60922128 294.98766555 273.7740332 C294.98505542 269.7072603 294.98252802 265.64048735 294.98004174 261.57371438 C294.95931761 227.85047632 294.9240994 194.12726749 294.87939453 160.40405273 C293.77851501 160.4004071 292.6776355 160.39676147 291.543396 160.39300537 C281.12792957 160.35593537 270.71275552 160.29803227 260.29751205 160.22014999 C254.94393504 160.18077568 249.59052005 160.14853807 244.23681641 160.13305664 C239.06242993 160.11782373 233.88848918 160.08326119 228.71430206 160.03574371 C226.74817039 160.02099807 224.78197506 160.01301567 222.81578827 160.01216888 C206.23118859 159.99785344 193.20424041 158.16638504 180.65673828 146.30249023 C171.71522918 136.842875 167.59461256 126.22210418 167.56054688 113.34765625 C167.54547844 112.02939095 167.54547844 112.02939095 167.53010559 110.68449402 C167.4993943 107.80065522 167.4822721 104.91690874 167.46533203 102.03295898 C167.44661068 100.02513339 167.42703655 98.01731557 167.40664673 96.00950623 C167.35542174 90.74065756 167.3157445 85.47178341 167.27850342 80.20281982 C167.23840331 74.81996405 167.1873384 69.4372134 167.13720703 64.05444336 C167.04056182 53.5043871 166.95612061 42.95427135 166.87939453 32.40405273 C144.08730333 32.33392421 121.29522997 32.28104569 98.50305271 32.24861622 C87.91988579 32.23315741 77.33678596 32.2120867 66.75366211 32.17773438 C57.52777131 32.14780188 48.30192911 32.12847056 39.07599109 32.12178725 C34.19241533 32.11788153 29.3089786 32.108723 24.42544746 32.08686256 C19.82491931 32.06643661 15.22458691 32.06023127 10.62401772 32.06472969 C8.93943975 32.06390722 7.25485495 32.05797805 5.57031631 32.04643631 C-8.91306724 31.44779901 -8.91306724 31.44779901 -21.05810547 38.15405273 Z M198.87939453 56.40405273 C198.8030556 64.21445423 198.75067337 72.02475875 198.71459961 79.83544922 C198.70125484 82.4902505 198.67911442 85.14456126 198.65307617 87.79931641 C198.6165078 91.62465525 198.59962525 95.44966415 198.58642578 99.27514648 C198.57094193 100.45362656 198.55545807 101.63210663 198.539505 102.84629822 C198.53809791 109.80423353 198.57494422 117.30651537 203.15461731 122.9853363 C210.16831731 129.43518856 218.91691142 128.67661135 227.81298828 128.59936523 C229.66259911 128.59512039 229.66259911 128.59512039 231.54957581 128.59078979 C235.47211578 128.57963134 239.39442403 128.55453425 243.31689453 128.52905273 C245.98290682 128.5178867 248.64891692 128.5098925 251.31494141 128.50170898 C257.8365043 128.47970615 264.35793285 128.44627152 270.87939453 128.40405273 C266.86911432 123.59791099 262.68004475 119.05996114 258.24731445 114.64257812 C257.6140625 114.00757385 256.98081055 113.37256958 256.32836914 112.71832275 C254.258023 110.64361465 252.18408799 108.57253886 250.10986328 106.50170898 C248.66337211 105.05454366 247.21702938 103.60722995 245.77082825 102.15977478 C242.75240504 99.13988272 239.73219375 96.12179361 236.71069336 93.10498047 C232.82882902 89.2288437 228.95151237 85.3481936 225.07549572 81.46621037 C222.09630818 78.48342141 219.1147581 75.50300324 216.13247108 72.52331352 C214.70072235 71.09223364 213.26972095 69.66040569 211.839468 68.22783089 C209.85021402 66.23605397 207.85781188 64.24748232 205.86450195 62.25976562 C205.26972549 61.66296494 204.67494904 61.06616425 204.06214905 60.45127869 C201.83374846 57.68468606 201.83374846 57.68468606 198.87939453 56.40405273 Z " fill="#000000" transform="translate(121.12060546875,15.595947265625)"/>
</svg>
