<?xml version="1.0" encoding="UTF-8"?>
<svg version="1.1" xmlns="http://www.w3.org/2000/svg" width="512" height="512">
<path d="M0 0 C1.58239723 -0.0076664 1.58239723 -0.0076664 3.19676208 -0.01548767 C6.66142556 -0.02931294 10.1258885 -0.02843205 13.59057617 -0.02612305 C16.01519341 -0.03001414 18.43980997 -0.03434965 20.86442566 -0.03910828 C25.93893649 -0.04655554 31.01337772 -0.04629023 36.08789062 -0.04101562 C42.56707854 -0.03522619 49.04598012 -0.0521469 55.52512074 -0.0753603 C60.53107854 -0.09014578 65.53696818 -0.09096273 70.54294395 -0.08785057 C72.93057509 -0.08836146 75.31821028 -0.09355528 77.70582008 -0.10366249 C81.05536728 -0.11610159 84.40436677 -0.10919009 87.75390625 -0.09765625 C88.72520477 -0.10529999 89.6965033 -0.11294373 90.69723511 -0.12081909 C108.88919986 0.01653047 120.53135725 7.85439613 133.07104492 20.2746582 C134.3463508 21.57363643 135.61834662 22.8758706 136.88745117 24.1809082 C137.86742065 25.18263062 137.86742065 25.18263062 138.8671875 26.20458984 C140.13654074 27.50883721 141.39613681 28.82267828 142.64404297 30.14746094 C148.69501707 36.38698528 154.99871399 39.98618625 163.81354809 40.40494347 C165.31364154 40.40877761 165.31364154 40.40877761 166.84403992 40.41268921 C167.9976149 40.41814255 169.15118988 40.42359589 170.33972168 40.42921448 C171.59643677 40.43025681 172.85315186 40.43129913 174.14794922 40.43237305 C175.49205185 40.43704517 176.83615291 40.44218939 178.18025208 40.44776917 C181.07052651 40.45902552 183.96079078 40.46747164 186.85107994 40.4738884 C191.42873812 40.48460167 196.00632326 40.50485635 200.5839386 40.52700806 C213.59970746 40.58881729 226.61547186 40.64288484 239.63134766 40.67602539 C246.82329072 40.69441723 254.01511107 40.72341021 261.20696384 40.7640301 C265.00785136 40.78502392 268.80858477 40.80054649 272.60953331 40.80283737 C276.18917373 40.80499748 279.76849333 40.8210042 283.34803581 40.8472271 C285.27357032 40.85775201 287.19916767 40.85368824 289.12472534 40.8490448 C301.85824542 40.97001415 312.24997145 44.21148178 321.88354492 52.7746582 C322.96635742 54.0121582 322.96635742 54.0121582 324.07104492 55.2746582 C324.91666992 56.2027832 325.76229492 57.1309082 326.63354492 58.0871582 C333.12157429 66.04417535 335.40082056 74.98018843 335.26635742 85.05200195 C335.26211258 86.2690255 335.26211258 86.2690255 335.25778198 87.51063538 C335.24667155 90.07796573 335.22158464 92.64493498 335.19604492 95.2121582 C335.18600329 96.96280417 335.17687951 98.71345566 335.16870117 100.46411133 C335.14676226 104.73443075 335.11229652 109.00448345 335.07104492 113.2746582 C335.64159607 113.25643005 336.21214722 113.2382019 336.79998779 113.21942139 C352.6466637 112.73560122 364.83088802 114.06861594 377.07104492 125.2746582 C386.30090231 135.51281934 390.78294188 147.49489212 390.07104492 161.2746582 C389.60310771 163.76878497 389.04230739 166.24691971 388.39990234 168.7019043 C388.22092753 169.38791906 388.04195272 170.07393383 387.85755444 170.78073692 C385.74480535 178.73826415 383.28775437 186.58920113 380.80932617 194.4387207 C380.30017498 196.06332145 379.79143242 197.68805031 379.2830658 199.31289673 C377.9335062 203.62229328 376.57831495 207.92989746 375.22169495 212.23707581 C373.81223918 216.71454642 372.4072349 221.19341369 371.00170898 225.67211914 C369.30616535 231.07368517 367.60986672 236.475011 365.91085815 241.87548828 C362.73425426 251.97286176 359.56971759 262.07384344 356.42319298 272.18062973 C355.07983207 276.49316546 353.73214615 280.80435183 352.38485718 285.11566162 C351.6836966 287.36253741 350.98429319 289.60996241 350.28677368 291.85797119 C338.58009848 329.56506586 338.58009848 329.56506586 322.74682617 338.87231445 C315.53940287 342.64963557 308.58483582 344.39540048 300.43118858 344.40608597 C299.32588968 344.40992711 298.22059077 344.41376826 297.08179796 344.4177258 C295.87792078 344.41685932 294.67404361 344.41599284 293.4336853 344.4151001 C291.50309184 344.41955678 291.50309184 344.41955678 289.5334965 344.4241035 C285.96731862 344.43215177 282.40116089 344.43396186 278.834975 344.43470097 C274.98613876 344.43655532 271.13731289 344.4441046 267.28848267 344.45083618 C258.87507885 344.46440479 250.46167982 344.47044199 242.04826689 344.47484684 C236.79202009 344.47761187 231.53577513 344.48184971 226.27952957 344.48635101 C211.71840467 344.49854198 197.15728124 344.50884149 182.59615135 344.5122261 C181.66461567 344.51244567 180.73307998 344.51266524 179.77331594 344.51289146 C178.37272177 344.51321887 178.37272177 344.51321887 176.94383276 344.5135529 C175.05182926 344.51399637 173.15982576 344.51444293 171.26782227 344.51489258 C170.32932873 344.51511401 169.3908352 344.51533544 168.42390247 344.51556358 C153.22309831 344.51951008 138.02234213 344.53696035 122.82155649 344.5602521 C107.20453531 344.5839879 91.58753819 344.59642898 75.97049868 344.59759402 C67.20641441 344.59850955 58.44239266 344.60423108 49.67832565 344.62241364 C42.21430354 344.63784475 34.75036328 344.64291737 27.28632824 344.63467553 C23.48128755 344.63077961 19.67641153 344.63164659 15.8713913 344.64573288 C11.73757855 344.66089576 7.60413379 344.65257404 3.4703064 344.64215088 C2.27981355 344.65020728 1.0893207 344.65826369 -0.13724768 344.66656423 C-15.00487151 344.57916004 -26.9098706 340.67075845 -37.85473633 330.5090332 C-46.5892321 321.1001225 -49.38949725 310.38048653 -49.31663513 297.86428833 C-49.32471344 296.18605541 -49.32471344 296.18605541 -49.33295494 294.4739188 C-49.34721367 290.74088141 -49.34013569 287.00819967 -49.33300781 283.27514648 C-49.33871247 280.59218227 -49.34557695 277.90924321 -49.35380554 275.22628784 C-49.3709645 268.70460908 -49.37183957 262.18302678 -49.36659264 255.66133131 C-49.36254412 250.35794991 -49.36400258 245.05459694 -49.3693409 239.75121689 C-49.37008932 238.99516327 -49.37083774 238.23910965 -49.37160884 237.46014532 C-49.37314039 235.92400416 -49.37467874 234.38786301 -49.37622381 232.85172187 C-49.38993846 218.45965316 -49.38451855 204.06763888 -49.3730386 189.67557143 C-49.3631083 176.52413933 -49.37604518 163.37284798 -49.39997279 150.22143759 C-49.4243864 136.70048654 -49.43396605 123.17960098 -49.42732006 109.65862834 C-49.42383273 102.07447204 -49.42602764 94.49042392 -49.44357109 86.90628433 C-49.45832145 80.44980419 -49.45889173 73.99350842 -49.44150018 67.53703178 C-49.43301071 64.24643991 -49.43297368 60.95624326 -49.44615173 57.66565704 C-49.45937626 54.08979495 -49.44779961 50.51481979 -49.43016052 46.93899536 C-49.44456803 45.39708611 -49.44456803 45.39708611 -49.4592666 43.82402718 C-49.33983766 32.01045686 -44.99079923 21.70882292 -36.89379883 13.11450195 C-26.06477914 2.89664387 -14.5369962 -0.03684803 0 0 Z M-27.46801758 28.16137695 C-32.15100397 35.13108477 -33.23459718 42.41727237 -33.16946411 50.63964844 C-33.17117296 51.44277655 -33.17288181 52.24590466 -33.17464244 53.07336998 C-33.17791612 55.74342369 -33.16696892 58.4132217 -33.15600586 61.08325195 C-33.15544129 63.00558974 -33.15575921 64.92792796 -33.15689087 66.8502655 C-33.15746358 72.05420927 -33.14572243 77.25806043 -33.13174295 82.46198273 C-33.11922203 87.90588407 -33.11806402 93.34978765 -33.11569214 98.79370117 C-33.10948138 109.09596006 -33.09307601 119.3981764 -33.07299316 129.70041656 C-33.0506216 141.43193278 -33.03963756 153.16345105 -33.02960229 164.89498329 C-33.00870944 189.02156517 -32.9735413 213.1481093 -32.92895508 237.2746582 C-30.77893694 234.04963099 -29.87110635 231.31042838 -28.7175293 227.61376953 C-28.50575546 226.93987183 -28.29398163 226.26597412 -28.07579041 225.57165527 C-27.37397095 223.334696 -26.67890011 221.095696 -25.98364258 218.85668945 C-25.49048229 217.28164327 -24.99683152 215.70675058 -24.50271606 214.13200378 C-23.19638829 209.96512814 -21.8954494 205.79659119 -20.5960083 201.62756348 C-16.840955 189.58372989 -13.06994406 177.54495278 -9.2677002 165.51593018 C-8.41608372 162.82137031 -7.56891473 160.12550146 -6.72692871 157.42791748 C-5.68601948 154.1051905 -4.62723324 150.7887961 -3.56176758 147.47387695 C-3.2761496 146.5499263 -2.99053162 145.62597565 -2.69625854 144.67402649 C0.5924532 134.60151172 6.33007785 126.36282799 15.07104492 120.2746582 C21.83640065 116.84517599 28.43176316 114.15921254 36.06103897 114.135993 C37.07222109 114.13051856 38.08340321 114.12504412 39.12522721 114.11940378 C40.23416896 114.11842567 41.3431107 114.11744757 42.48565674 114.11643982 C43.66513752 114.11150184 44.8446183 114.10656386 46.05984092 114.10147625 C49.33445866 114.08876135 52.60905342 114.08047807 55.88368845 114.07404959 C59.41467918 114.06604372 62.94564833 114.05234658 66.47662354 114.03933716 C72.59453912 114.01757708 78.7124569 113.99943087 84.83039093 113.98373222 C93.67591955 113.96102934 102.52142426 113.93288709 111.3669326 113.90341295 C125.71783709 113.85574218 140.06875136 113.81247659 154.41967773 113.77197266 C168.36109172 113.73261511 182.30249702 113.69118826 196.24389648 113.64697266 C197.53270223 113.64288625 197.53270223 113.64288625 198.84754446 113.63871729 C203.15787455 113.62503776 207.46820451 113.6113175 211.77853441 113.59757698 C247.54268659 113.48362028 283.30685715 113.37680913 319.07104492 113.2746582 C319.12971834 108.81638131 319.16486627 104.35820547 319.19604492 99.8996582 C319.21280273 98.64797852 319.22956055 97.39629883 319.24682617 96.10668945 C319.30658636 84.69249371 318.7810598 75.15645948 311.07104492 66.2746582 C305.16903146 60.78413971 299.36594379 58.02977894 291.19125366 58.01637268 C290.03919434 58.00954468 288.88713501 58.00271667 287.70016479 57.99568176 C286.45018707 57.99823471 285.20020935 58.00078766 283.91235352 58.00341797 C282.5713469 57.99902659 281.230343 57.99372294 279.88934326 57.98757935 C277.00834869 57.97610653 274.1274274 57.9706219 271.24641037 57.96969795 C266.6806959 57.96774994 262.11513173 57.94965467 257.54946899 57.92893982 C246.20530328 57.87984256 234.86109671 57.84893434 223.5168457 57.82763672 C214.70536957 57.81106601 205.89402258 57.78810803 197.08263266 57.74461597 C192.55488662 57.7229725 188.02738668 57.71476934 183.49959254 57.71700871 C180.6669823 57.71532777 177.83452918 57.70119258 175.00197601 57.68379593 C173.08636604 57.67563491 171.1707107 57.68207977 169.25509644 57.68916321 C150.11074354 57.53116078 138.37533711 50.45224284 125.07104492 37.2746582 C123.79573904 35.97567998 122.52374323 34.67344581 121.25463867 33.3684082 C120.60132568 32.70059326 119.9480127 32.03277832 119.27490234 31.34472656 C118.0055491 30.04047919 116.74595303 28.72663812 115.49804688 27.40185547 C110.09890641 21.8344761 103.88616914 17.63210881 95.93293476 17.14323044 C95.15925651 17.14025578 94.38557825 17.13728111 93.5884552 17.13421631 C92.6956485 17.12850616 91.8028418 17.12279602 90.88298035 17.11691284 C89.91097183 17.11579498 88.93896332 17.11467712 87.9375 17.11352539 C86.90774048 17.10856049 85.87798096 17.10359558 84.8170166 17.09848022 C81.40819633 17.08386866 77.99942262 17.07705762 74.59057617 17.0715332 C72.21888732 17.06578015 69.84719848 17.06002243 67.47550964 17.05426025 C62.49978417 17.04375259 57.52407485 17.03790864 52.54833984 17.03442383 C46.18419314 17.02894502 39.82026102 17.00492887 33.45618153 16.97645187 C28.55500168 16.9577916 23.65387312 16.95261804 18.75266075 16.95108795 C16.4072013 16.94806767 14.06174262 16.94006033 11.71631813 16.92690277 C8.42790226 16.90977466 5.14000535 16.91173945 1.8515625 16.91821289 C0.88967514 16.90899811 -0.07221222 16.89978333 -1.06324768 16.89028931 C-11.46644252 16.95417354 -20.71215163 19.87943976 -27.46801758 28.16137695 Z M18.07104492 139.2746582 C13.01547891 146.56953569 10.65946837 155.00487094 8.07104492 163.38793945 C7.5978812 164.89449216 7.12386445 166.40077718 6.64906311 167.90681458 C5.37533686 171.95605745 4.11404541 176.00907024 2.85560989 180.06308746 C1.5382148 184.30135775 0.21099649 188.53655191 -1.11474609 192.7722168 C-3.30461183 199.77400371 -5.48652192 206.77823076 -7.66381836 213.78393555 C-10.05096124 221.46408549 -12.45228704 229.13967021 -14.86315346 236.81240368 C-16.84126339 243.10848878 -18.81235835 249.40673446 -20.77724266 255.70695972 C-21.93017582 259.40361796 -23.08565736 263.09942449 -24.24804688 266.79312134 C-25.33542206 270.2498566 -26.41321274 273.70944034 -27.48385811 277.17139244 C-28.05841229 279.02128299 -28.6424089 280.86823279 -29.22679138 282.71504211 C-32.71651544 294.06501528 -34.46043836 303.33559938 -28.92895508 314.24731445 C-24.90364975 320.6067378 -18.38059411 324.87686614 -11.17803061 326.85603452 C-6.25509693 327.77234729 -1.22388844 327.55502194 3.76618958 327.54208374 C5.04735033 327.54661485 6.32851109 327.55114597 7.6484949 327.55581439 C11.19349358 327.56801833 14.7383977 327.56778701 18.28341258 327.56542563 C22.11107048 327.56501681 25.93869833 327.57606285 29.76634216 327.58554077 C37.26117138 327.60213722 44.75596913 327.6076497 52.25081519 327.60876553 C58.34419819 327.6097166 64.43757083 327.61382987 70.53095055 327.62016678 C87.81492606 327.63777515 105.09887675 327.64700623 122.38286129 327.64550583 C123.77985863 327.64538596 123.77985863 327.64538596 125.20507812 327.64526367 C126.13754955 327.64518191 127.07002097 327.64510015 128.0307491 327.64501591 C143.14233012 327.64420303 158.25381145 327.66334232 173.36536364 327.69154041 C188.889751 327.72027979 204.41408976 327.73408013 219.9385044 327.73235285 C228.65110624 327.73168934 237.36360356 327.73716485 246.07618141 327.75870895 C253.49414666 327.77693458 260.91196001 327.78125673 268.32993797 327.76769011 C272.11250455 327.76116751 275.89477984 327.76101733 279.67731857 327.77839661 C283.78341509 327.797068 287.88883942 327.78455456 291.99494934 327.76913452 C293.77673111 327.78456521 293.77673111 327.78456521 295.59450847 327.80030763 C304.40789846 327.72723801 312.69210916 326.10025107 319.44604492 320.0246582 C320.0519043 319.50387695 320.65776367 318.9830957 321.28198242 318.4465332 C326.85142427 311.68537672 328.96321475 302.89170248 331.50073242 294.67700195 C331.9278441 293.31209205 332.35554406 291.94736611 332.78378296 290.58280945 C333.93885275 286.89607217 335.0853811 283.20673014 336.23017883 279.5167923 C337.43391978 275.64151104 338.64510359 271.7685563 339.85522461 267.89526367 C342.15039288 260.54423346 344.4377116 253.19078463 346.72177124 245.83629608 C348.55256796 239.94168218 350.38655285 234.04806834 352.22241211 228.1550293 C355.01643805 219.18567053 357.80631304 210.21502841 360.59293365 201.24336624 C361.31914477 198.90577459 362.04586726 196.56834235 362.77264404 194.23092651 C363.91731644 190.54852274 365.05953382 186.86536575 366.19987869 183.18161964 C366.61750216 181.83363809 367.0358502 180.48588076 367.45499802 179.13837242 C373.29279787 162.17405646 373.29279787 162.17405646 370.00854492 145.1496582 C366.20647942 138.12457741 361.09027003 133.65734039 353.56470001 130.9165343 C348.49449096 129.61144362 343.30083084 129.86108576 338.09706116 129.88697815 C336.7980062 129.88159261 335.49895124 129.87620707 334.16053098 129.87065834 C330.57020825 129.85624015 326.98011578 129.86043698 323.38978064 129.86782515 C319.51170884 129.87256352 315.63368638 129.86004109 311.75563049 129.84980774 C304.16433369 129.83262774 296.57311969 129.83177803 288.98180849 129.83702064 C282.81072896 129.84106492 276.63967387 129.83961573 270.4685955 129.83427238 C269.15027183 129.83314975 269.15027183 129.83314975 267.80531536 129.83200444 C266.0197732 129.83047294 264.23423106 129.82893459 262.44868892 129.82738947 C245.71132805 129.81366742 228.97401395 129.81910014 212.23665415 129.83057468 C196.93046169 129.84050768 181.6243901 129.82756473 166.31821627 129.80364049 C150.59378441 129.77924804 134.86940884 129.76964192 119.14495844 129.77629322 C110.3200688 129.779785 101.49527212 129.77755605 92.6703968 129.76004219 C85.1583634 129.74531844 77.64648844 129.74468706 70.13445813 129.7621131 C66.30340922 129.77062392 62.47264333 129.77277087 58.64160919 129.75746155 C54.48484763 129.74105648 50.32876852 129.75576487 46.17201233 129.77345276 C44.9663633 129.76384775 43.76071427 129.75424275 42.51853043 129.74434668 C32.69357537 129.83038619 25.08918901 132.09701084 18.07104492 139.2746582 Z " fill="#000000" transform="translate(85.928955078125,67.725341796875)"/>
</svg>
